{"title":"Vikings Season 1 Uncensored 1080p XVID MP3 .AVI","uid":10171152,"size":13631683880,"categoryP":"video","categoryS":"hd___tv_shows","magnet":"?xt=urn:btih:49d1e00f3764a4278ff0f49d43459448e9d7638b&amp;dn=Vikings+Season+1+Uncensored+1080p+XVID+MP3+.AVI&amp;tr=udp%3A%2F%2Ftracker.openbittorrent.com%3A80&amp;tr=udp%3A%2F%2Fopen.demonii.com%3A1337&amp;tr=udp%3A%2F%2Ftracker.coppersurfer.tk%3A6969&amp;tr=udp%3A%2F%2Fexodus.desync.com%3A6969","seeders":9,"leechers":3,"uploader":"Danimal1q2w3","files":9,"time":1400412780,"description":"Media info from the first episode\n\nVideo\nID                                       : 0\nFormat                                   : MPEG-4 Visual\nFormat profile                           : Simple@L3\nFormat settings, BVOP                    : No\nFormat settings, QPel                    : No\nFormat settings, GMC                     : No warppoints\nFormat settings, Matrix                  : Default (H.263)\nCodec ID                                 : XVID\nCodec ID/Hint                            : XviD\nDuration                                 : 46mn 36s\nBit rate                                 : 4 132 Kbps\nWidth                                    : 1 920 pixels\nHeight                                   : 1 080 pixels\nDisplay aspect ratio                     : 16:9\nFrame rate                               : 23.976 fps\nColor space                              : YUV\nChroma subsampling                       : 4:2:0\nBit depth                                : 8 bits\nScan type                                : Progressive\nCompression mode                         : Lossy\nBits/(Pixel*Frame)                       : 0.083\nStream size                              : 1.35 GiB (93%)\nWriting library                          : XviD 63\n\nAudio\nID                                       : 1\nFormat                                   : MPEG Audio\nFormat version                           : Version 1\nFormat profile                           : Layer 3\nMode                                     : Joint stereo\nMode extension                           : MS Stereo\nCodec ID                                 : 55\nCodec ID/Hint                            : MP3\nDuration                                 : 46mn 36s\nBit rate mode                            : Variable\nBit rate                                 : 312 Kbps\nChannel(s)                               : 2 channels\nSampling rate                            : 48.0 KHz\nCompression mode                         : Lossy\nStream size                              : 104 MiB (7%)\nAlignment                                : Aligned on interleaves\nInterleave, duration                     : 24 ms (0.58 video frame)\nInterleave, preload duration             : 399 ms\n","torrent":{"xt":"urn:btih:49d1e00f3764a4278ff0f49d43459448e9d7638b","amp;dn":"Vikings+Season+1+Uncensored+1080p+XVID+MP3+.AVI","amp;tr":["udp%3A%2F%2Ftracker.openbittorrent.com%3A80","udp%3A%2F%2Fopen.demonii.com%3A1337","udp%3A%2F%2Ftracker.coppersurfer.tk%3A6969","udp%3A%2F%2Fexodus.desync.com%3A6969"],"infoHash":"49d1e00f3764a4278ff0f49d43459448e9d7638b","infoHashBuffer":{"type":"Buffer","data":[73,209,224,15,55,100,164,39,143,240,244,157,67,69,148,72,233,215,99,139]},"announce":[],"urlList":[]}}